<?xml version="1.0" standalone="no"?>
<!DOCTYPE svg PUBLIC "-//W3C//DTD SVG 20010904//EN"
 "http://www.w3.org/TR/2001/REC-SVG-20010904/DTD/svg10.dtd">
<svg version="1.0" xmlns="http://www.w3.org/2000/svg"
 width="976.000000pt" height="976.000000pt" viewBox="0 0 976.000000 976.000000"
 preserveAspectRatio="xMidYMid meet">
<metadata>
Created by potrace 1.11, written by Peter Selinger 2001-2013
</metadata>
<g transform="translate(0.000000,976.000000) scale(0.100000,-0.100000)"
fill="#000000" stroke="none">
<path d="M2998 8705 c-199 -27 -369 -82 -556 -180 -138 -72 -245 -150 -370
-270 -220 -210 -371 -461 -452 -750 -62 -224 -60 -126 -60 -2470 l0 -2134
-592 -3 c-589 -3 -593 -3 -641 -25 -104 -48 -170 -126 -202 -237 -20 -68 -17
-119 16 -278 146 -704 728 -1229 1451 -1307 65 -8 843 -11 2362 -11 2462 0
2371 -2 2591 55 410 107 770 374 995 740 93 151 167 336 212 533 l22 97 6
2440 5 2440 805 5 805 5 67 32 c160 76 255 252 227 423 -21 134 -99 302 -204
441 -183 244 -451 404 -758 454 -80 13 -455 15 -2862 14 -2241 -1 -2789 -4
-2867 -14z m4662 -392 c-1 -5 -23 -37 -50 -73 -64 -84 -131 -213 -169 -326
-64 -192 -61 -30 -61 -2774 0 -1616 -4 -2525 -10 -2580 -35 -293 -163 -554
-371 -757 -93 -91 -142 -128 -254 -192 -487 -279 -1105 -197 -1504 200 -174
173 -285 383 -345 651 -33 144 -65 208 -142 286 -70 69 -172 125 -263 142 -34
6 -496 10 -1293 10 l-1239 0 4 2158 3 2157 22 98 c60 261 178 474 361 650 211
203 470 321 759 347 112 9 4552 12 4552 3z m1055 -20 c188 -43 363 -160 466
-310 30 -43 92 -169 104 -210 l6 -23 -740 0 -740 0 20 59 c60 176 204 335 384
421 180 86 320 104 500 63z m-4292 -5804 c49 -13 62 -35 86 -146 68 -312 220
-592 443 -815 43 -43 78 -80 78 -83 0 -10 -3244 -5 -3360 5 -225 20 -437 95
-618 219 -101 69 -256 224 -322 320 -90 134 -180 347 -180 427 0 36 23 64 63
76 39 11 3768 9 3810 -3z"/>
<path d="M4425 7245 c-649 -102 -1179 -577 -1349 -1206 -62 -232 -73 -534 -26
-754 87 -408 308 -756 640 -1007 114 -86 330 -200 460 -242 287 -94 591 -110
885 -45 139 31 228 63 380 139 401 199 695 540 835 968 61 188 75 286 75 517
0 168 -4 217 -23 307 -78 375 -276 713 -555 947 -230 192 -508 322 -795 371
-134 23 -398 26 -527 5z m377 -396 c491 -52 901 -380 1058 -847 83 -250 82
-556 -4 -801 -151 -432 -523 -747 -973 -826 -113 -19 -303 -19 -416 0 -298 53
-576 216 -762 448 -187 233 -277 491 -276 792 1 396 182 756 502 995 174 130
389 214 609 239 109 12 147 12 262 0z"/>
</g>
</svg>
