<?xml version="1.0" encoding="UTF-8"?>
<svg width="782px" height="940px" viewBox="0 0 782 940" version="1.1" xmlns="http://www.w3.org/2000/svg" xmlns:xlink="http://www.w3.org/1999/xlink">
    <!-- Generator: Sketch 49.3 (51167) - http://www.bohemiancoding.com/sketch -->
    <title>Custom Preset 3</title>
    <desc>Created with Sketch.</desc>
    <defs></defs>
    <g id="Custom-Preset-3" stroke="none" stroke-width="1" fill="none" fill-rule="evenodd">
        <g id="Group-2" transform="translate(-5.000000, -19.000000)"></g>
        <g id="8230-[Converted]" opacity="0.0866734601" transform="translate(30.000000, -82.000000)" stroke="#FFFFFF" stroke-width="6">
            <g id="Group">
                <polygon id="Shape" fill="#E8EAEA" opacity="0.5" points="590.15 615.35 861.8 344.01 1133.45 615.35 861.8 886.69"></polygon>
                <polygon id="Shape" fill="#E8EAEA" opacity="0.5" points="0.25 392.52 174.89 218.08 349.54 392.52 174.89 566.96"></polygon>
                <polygon id="Shape" fill="#DBDBDB" opacity="0.5" points="520.28 1036.46 735.17 821.81 950.06 1036.46 735.17 1251.1"></polygon>
                <polygon id="Shape" fill="#DBDBDB" opacity="0.5" points="306.67 570.2 382.64 494.32 458.61 570.2 382.64 646.08"></polygon>
                <polygon id="Shape" fill="#E8EAEA" opacity="0.5" points="149.58 820.77 225.55 744.89 301.52 820.77 225.55 896.65"></polygon>
                <polygon id="Shape" fill="#DBDBDB" opacity="0.5" points="330.05 874.98 402.77 802.36 475.48 874.98 402.77 947.61"></polygon>
                <polygon id="Shape" fill="#DBDBDB" opacity="0.5" points="637.13 606.52 741.66 502.11 846.19 606.52 741.66 710.92"></polygon>
                <polygon id="Shape" fill="#DBDBDB" opacity="0.5" points="579.36 766.04 727.38 618.19 875.4 766.04 727.38 913.89"></polygon>
                <polygon id="Shape" fill="#E8EAEA" opacity="0.5" points="482.62 392.52 630.64 244.67 778.66 392.52 630.64 540.37"></polygon>
                <polygon id="Shape" fill="#FFFFFF" opacity="0.6" points="542.42 392.52 630.64 304.4 718.86 392.52 630.64 480.64"></polygon>
                <polygon id="Shape" fill="#FFFFFF" opacity="0.6" points="533.51 692.02 621.73 603.9 709.95 692.02 621.73 780.14"></polygon>
                <polygon id="Shape" fill="#FFFFFF" opacity="0.6" points="722.23 271.65 810.46 183.53 898.68 271.65 810.46 359.77"></polygon>
                <polygon id="Shape" fill="#FFFFFF" opacity="0.6" points="643.64 668.99 731.87 580.86 820.09 668.99 731.87 757.11"></polygon>
                <polygon id="Shape" fill="#FFFFFF" opacity="0.6" points="636.28 881.48 724.5 793.36 812.73 881.48 724.5 969.6"></polygon>
                <polygon id="Shape" fill="#FFFFFF" opacity="0.6" points="339.9 803.63 428.13 715.51 516.35 803.63 428.13 891.75"></polygon>
                <polygon id="Shape" fill="#DBDBDB" opacity="0.5" points="107.25 884.95 195.47 796.83 283.69 884.95 195.47 973.08"></polygon>
                <polygon id="Shape" fill="#FFFFFF" opacity="0.6" points="154.38 624.4 242.6 536.28 330.82 624.4 242.6 712.53"></polygon>
                <polygon id="Shape" fill="#FFFFFF" opacity="0.6" points="342.68 501.81 430.9 413.69 519.12 501.81 430.9 589.93"></polygon>
                <polygon id="Shape" fill="#FFFFFF" opacity="0.6" points="599.48 243.02 687.7 154.9 775.92 243.02 687.7 331.14"></polygon>
                <polygon id="Shape" fill="#FFFFFF" opacity="0.6" points="688.6 355.72 776.83 267.6 865.05 355.72 776.83 443.84"></polygon>
                <polygon id="Shape" fill="#DBDBDB" opacity="0.5" points="429.73 976.55 517.95 888.42 606.17 976.55 517.95 1064.67"></polygon>
                <polygon id="Shape" fill="#E8EAEA" opacity="0.5" points="451.46 995.6 565.07 882.12 678.69 995.6 565.07 1109.08"></polygon>
                <polygon id="Shape" fill="#DBDBDB" opacity="0.5" points="503.39 493.68 580 417.16 656.61 493.68 580 570.2"></polygon>
                <polygon id="Shape" fill="#DBDBDB" opacity="0.5" points="454.88 850.22 602.9 702.37 750.92 850.22 602.9 998.07"></polygon>
                <polygon id="Shape" fill="#FFFFFF" opacity="0.6" points="514.67 850.22 602.9 762.1 691.12 850.22 602.9 938.34"></polygon>
                <polygon id="Shape" fill="#FFFFFF" opacity="0.6" points="475.65 951.38 552.26 874.86 628.87 951.38 552.26 1027.9"></polygon>
                <polygon id="Shape" fill="#E8EAEA" opacity="0.5" points="691.89 226.96 768.5 150.44 845.11 226.96 768.5 303.48"></polygon>
                <polygon id="Shape" fill="#FFFFFF" opacity="0.6" points="382.64 392.52 459.25 316 535.86 392.52 459.25 469.04"></polygon>
                <polygon id="Shape" fill="#DBDBDB" opacity="0.5" points="344.33 270.61 451.46 163.61 558.58 270.61 451.46 377.61"></polygon>
                <polygon id="Shape" fill="#DBDBDB" opacity="0.5" points="352.13 107.24 459.25 0.24 566.37 107.24 459.25 214.24"></polygon>
                <polygon id="Shape" fill="#DBDBDB" opacity="0.5" points="195.01 270.61 302.14 163.61 409.26 270.61 302.14 377.61"></polygon>
                <polygon id="Shape" fill="#FFFFFF" opacity="0.6" points="103.47 262.82 174.89 191.49 246.3 262.82 174.89 334.16"></polygon>
                <polygon id="Shape" fill="#FFFFFF" opacity="0.6" points="140.49 448.94 235.27 354.27 330.05 448.94 235.27 543.62"></polygon>
                <polygon id="Shape" fill="#DBDBDB" opacity="0.5" points="322.91 511.84 377.45 457.37 431.99 511.84 377.45 566.32"></polygon>
                <polygon id="Shape" fill="#FFFFFF" opacity="0.6" points="200.84 614.01 255.38 559.54 309.92 614.01 255.38 668.49"></polygon>
                <polygon id="Shape" fill="#FFFFFF" opacity="0.6" points="251.87 273.51 306.41 219.03 360.95 273.51 306.41 327.98"></polygon>
                <polygon id="Shape" fill="#DBDBDB" opacity="0.5" points="497.32 230.43 604.45 123.43 711.57 230.43 604.45 337.43"></polygon>
                <polygon id="Shape" fill="#FFFFFF" opacity="0.6" points="554.18 233.33 608.72 178.86 663.26 233.33 608.72 287.81"></polygon>
                <polygon id="Shape" fill="#DBDBDB" opacity="0.5" points="189.51 448.56 244.05 394.09 298.59 448.56 244.05 503.04"></polygon>
                <polygon id="Shape" fill="#FFFFFF" opacity="0.6" points="426.92 570.34 459.25 538.05 491.57 570.34 459.25 602.63"></polygon>
                <polygon id="Shape" fill="#FFFFFF" opacity="0.6" points="443.32 699.61 475.64 667.32 507.97 699.61 475.64 731.89"></polygon>
                <polygon id="Shape" fill="#DBDBDB" opacity="0.5" points="261.88 989.64 317.07 934.52 372.25 989.64 317.07 1044.77"></polygon>
                <polygon id="Shape" fill="#FFFFFF" opacity="0.6" points="407.93 229.37 496.15 141.25 584.37 229.37 496.15 317.49"></polygon>
            </g>
        </g>
    </g>
</svg>