<?xml version="1.0" encoding="UTF-8"?>
<svg width="61px" height="48px" viewBox="0 0 61 48" version="1.1" xmlns="http://www.w3.org/2000/svg" xmlns:xlink="http://www.w3.org/1999/xlink">
    <!-- Generator: Sketch 49.3 (51167) - http://www.bohemiancoding.com/sketch -->
    <title>whitepaper-white</title>
    <desc>Created with Sketch.</desc>
    <defs></defs>
    <g id="Page-1" stroke="none" stroke-width="1" fill="none" fill-rule="evenodd">
        <g id="whitepaper-white">
            <path d="M48.8154,6.0629 C49.2534,4.4599 50.5074,3.2019 52.0974,2.7339 C52.5274,2.6069 52.9764,2.5259 53.4464,2.5259 C53.8524,2.5259 54.2434,2.5929 54.6234,2.6899 C56.2614,3.1089 57.6064,4.3649 58.0704,6.0629 L48.8154,6.0629 Z M46.1204,7.3259 L46.1204,37.6419 C46.1204,41.9609 42.6074,45.4739 38.2884,45.4739 C34.4304,45.4739 31.1804,42.7159 30.5594,38.9149 C30.3244,37.4689 29.0124,36.3789 27.5054,36.3789 L12.2674,36.3789 L12.2674,10.3579 C12.2674,6.0399 15.7804,2.5259 20.0994,2.5259 L47.9254,2.5259 C46.8044,3.8129 46.1204,5.4899 46.1204,7.3259 Z M11.0044,45.4739 C10.5364,45.4739 10.0774,45.4289 9.6304,45.3499 C9.4824,45.3239 9.3434,45.2729 9.1984,45.2389 C8.9044,45.1689 8.6094,45.1009 8.3284,44.9989 C8.1694,44.9409 8.0224,44.8619 7.8684,44.7949 C7.6144,44.6839 7.3604,44.5739 7.1214,44.4379 C6.9714,44.3519 6.8324,44.2479 6.6874,44.1519 C6.4654,44.0049 6.2434,43.8569 6.0374,43.6879 C5.8984,43.5739 5.7714,43.4459 5.6414,43.3219 C5.4534,43.1459 5.2684,42.9669 5.0984,42.7729 C4.9734,42.6279 4.8614,42.4729 4.7464,42.3199 C4.5994,42.1229 4.4554,41.9239 4.3274,41.7129 C4.2204,41.5369 4.1264,41.3529 4.0334,41.1689 C3.9274,40.9579 3.8254,40.7439 3.7374,40.5209 C3.6594,40.3219 3.5934,40.1159 3.5304,39.9089 C3.4814,39.7449 3.4424,39.5779 3.4034,39.4089 C3.4074,39.2949 3.4434,39.1949 3.4934,39.1319 C3.6044,38.9899 3.7774,38.9049 3.9564,38.9049 L27.5054,38.9049 C27.7824,38.9049 28.0284,39.0879 28.0664,39.3209 C28.4694,41.7969 29.7174,43.9369 31.4874,45.4739 L11.0044,45.4739 Z M60.5074,5.3649 C59.6314,2.2059 56.7284,-0.0001 53.4464,-0.0001 C53.4234,-0.0001 53.4014,0.0029 53.3774,0.0039 C53.3714,0.0029 53.3664,-0.0001 53.3604,-0.0001 L20.0994,-0.0001 C14.3884,-0.0001 9.7414,4.6469 9.7414,10.3579 L9.7414,36.3789 L2.8764,36.3789 C2.2584,36.3789 1.6664,36.6439 1.2544,37.1049 C0.8404,37.5689 0.6424,38.1879 0.7114,38.8039 C0.7594,39.2289 0.8404,39.6419 0.9374,40.0489 C0.9434,40.0749 0.9414,40.1019 0.9474,40.1279 C0.9714,40.2249 1.0044,40.3189 1.0314,40.4149 C1.0724,40.5629 1.1124,40.7099 1.1594,40.8549 C1.2074,41.0009 1.2604,41.1419 1.3134,41.2849 C1.3664,41.4259 1.4174,41.5679 1.4764,41.7069 C1.5414,41.8599 1.6144,42.0079 1.6864,42.1569 C1.7444,42.2759 1.7984,42.3979 1.8604,42.5139 C1.9624,42.7069 2.0754,42.8929 2.1884,43.0779 C2.2294,43.1439 2.2654,43.2129 2.3074,43.2779 C2.6394,43.7909 3.0144,44.2689 3.4264,44.7099 C3.4484,44.7349 3.4734,44.7569 3.4964,44.7809 C3.6794,44.9739 3.8684,45.1599 4.0654,45.3369 C4.1134,45.3799 4.1634,45.4189 4.2114,45.4609 C4.3884,45.6149 4.5684,45.7639 4.7544,45.9049 C4.8194,45.9539 4.8864,45.9999 4.9524,46.0469 C5.1274,46.1729 5.3044,46.2939 5.4874,46.4089 C5.5674,46.4589 5.6484,46.5069 5.7304,46.5549 C5.9044,46.6579 6.0814,46.7569 6.2614,46.8489 C6.3534,46.8969 6.4474,46.9429 6.5414,46.9879 C6.7154,47.0709 6.8934,47.1489 7.0724,47.2219 C7.1764,47.2649 7.2794,47.3069 7.3854,47.3459 C7.5614,47.4109 7.7414,47.4699 7.9224,47.5259 C8.0324,47.5609 8.1424,47.5959 8.2554,47.6269 C8.4394,47.6769 8.6264,47.7189 8.8134,47.7589 C8.9264,47.7839 9.0364,47.8109 9.1504,47.8309 C9.3554,47.8679 9.5634,47.8939 9.7714,47.9189 C9.8704,47.9299 9.9674,47.9469 10.0674,47.9559 C10.3764,47.9839 10.6894,47.9999 11.0044,47.9999 L38.2884,47.9999 C44.0004,47.9999 48.6474,43.3529 48.6474,37.6419 L48.6474,8.5889 L58.0704,8.5889 C58.8654,8.5889 59.5984,8.2249 60.0804,7.5909 C60.5664,6.9519 60.7224,6.1399 60.5074,5.3649 Z M29.2194,29.8099 C34.9314,29.8099 39.5774,25.1639 39.5774,19.4529 C39.5774,13.7409 34.9314,9.0949 29.2194,9.0949 C23.5084,9.0949 18.8614,13.7409 18.8614,19.4529 C18.8614,25.1639 23.5084,29.8099 29.2194,29.8099 Z" id="Fill-1" fill="#3071D8"></path>
            <path d="M29.2198,11.6213 C24.9008,11.6213 21.3878,15.1343 21.3878,19.4523 C21.3878,23.7703 24.9008,27.2833 29.2198,27.2833 C33.5378,27.2833 37.0508,23.7703 37.0508,19.4523 C37.0508,15.1343 33.5378,11.6213 29.2198,11.6213" id="Fill-3" fill="#FFD63F"></path>
        </g>
    </g>
</svg>