<?xml version="1.0" encoding="UTF-8"?>
<svg width="62px" height="48px" viewBox="0 0 62 48" version="1.1" xmlns="http://www.w3.org/2000/svg" xmlns:xlink="http://www.w3.org/1999/xlink">
    <!-- Generator: Sketch 49.3 (51167) - http://www.bohemiancoding.com/sketch -->
    <title>Group 30</title>
    <desc>Created with Sketch.</desc>
    <defs></defs>
    <g id="Page-1" stroke="none" stroke-width="1" fill="none" fill-rule="evenodd">
        <g id="whitepaper-blue">
            <g id="Group-30">
                <path d="M61.3616,4.6854 C60.6116,1.9834 58.1346,0.0004 55.1936,0.0004 L19.9936,0.0004 C14.6926,0.0004 10.3936,4.2984 10.3936,9.6004 L10.3936,38.4004 L1.8136,38.4004 C1.2376,38.4004 0.7896,38.9054 0.8536,39.4784 C0.8976,39.8714 0.9736,40.2544 1.0636,40.6314 C1.0686,40.6554 1.0666,40.6794 1.0726,40.7044 C1.0826,40.7474 1.1036,40.7864 1.1146,40.8294 C1.2346,41.2874 1.3816,41.7334 1.5646,42.1624 C1.5886,42.2174 1.6156,42.2704 1.6406,42.3244 C1.8386,42.7674 2.0636,43.1964 2.3246,43.6004 C2.3336,43.6144 2.3446,43.6284 2.3546,43.6424 C2.6186,44.0464 2.9146,44.4264 3.2346,44.7854 C3.2616,44.8154 3.2856,44.8484 3.3136,44.8784 C3.6296,45.2244 3.9746,45.5414 4.3386,45.8374 C4.3916,45.8804 4.4426,45.9254 4.4976,45.9684 C4.8566,46.2484 5.2376,46.5014 5.6356,46.7284 C5.7036,46.7674 5.7706,46.8054 5.8396,46.8434 C6.2426,47.0604 6.6616,47.2514 7.0966,47.4104 C7.1656,47.4364 7.2346,47.4574 7.3046,47.4814 C7.7536,47.6344 8.2156,47.7594 8.6916,47.8454 C8.7436,47.8544 8.7966,47.8584 8.8486,47.8674 C9.3526,47.9494 9.8666,48.0004 10.3936,48.0004 L39.1936,48.0004 C39.1936,48.0004 39.1926,48.0004 39.1926,48.0004 L39.1936,48.0004 C44.4956,48.0004 48.7936,43.7024 48.7936,38.4004 L48.7936,6.4004 L60.0746,6.4004 C60.9646,6.4004 61.5996,5.5434 61.3616,4.6854" id="Fill-22" fill="#FFFFFF"></path>
                <path d="M20.0209,19.2 C20.0209,24.502 24.3189,28.8 29.6209,28.8 C34.9229,28.8 39.2209,24.502 39.2209,19.2 C39.2209,13.898 34.9229,9.6 29.6209,9.6 C24.3189,9.6 20.0209,13.898 20.0209,19.2" id="Fill-24" fill="#FFD63F"></path>
                <path d="M55.1939,0 C51.6589,0 48.7939,2.865 48.7939,6.4 L60.0739,6.4 C60.9649,6.4 61.5999,5.544 61.3619,4.685 C60.6119,1.983 58.1349,0 55.1939,0" id="Fill-26" fill="#BFD6EF"></path>
                <path d="M39.1939,48 C34.4219,48 30.4639,44.519 29.7199,39.957 C29.5709,39.044 28.7369,38.4 27.8119,38.4 L1.8139,38.4 C1.2379,38.4 0.7899,38.906 0.8539,39.478 C1.3899,44.273 5.4569,48 10.3939,48 L39.1939,48 Z" id="Fill-28" fill="#BFD6EF"></path>
            </g>
        </g>
    </g>
</svg>