<?xml version="1.0" encoding="UTF-8"?>
<svg width="222px" height="120px" viewBox="0 0 222 120" version="1.1" xmlns="http://www.w3.org/2000/svg" xmlns:xlink="http://www.w3.org/1999/xlink">
    <!-- Generator: Sketch 55.2 (78181) - https://sketchapp.com -->
    <title>Group</title>
    <desc>Created with Sketch.</desc>
    <g id="CN" stroke="none" stroke-width="1" fill="none" fill-rule="evenodd">
        <g id="评价提交之后" transform="translate(-82.000000, -112.000000)">
            <g id="Group" transform="translate(82.000000, 112.000000)">
                <path d="M62.4917463,106.425393 C62.1113817,106.425393 61.7280222,106.279149 61.4397538,105.98666 C60.8632527,105.404656 60.8632527,104.455572 61.4457082,103.876576 L64.8304817,100.495055 C65.4099778,99.9190308 66.3519754,99.9130507 66.9314715,100.501035 C67.5079726,101.08304 67.5079726,102.032123 66.9255171,102.61112 L63.5407436,105.99264 C63.2495159,106.279149 62.8721108,106.425393 62.4917463,106.425393 L62.4917463,106.425393 Z" id="Path" fill="#9CA8C1"></path>
                <path d="M70.1260271,98.9192419 C69.7456626,98.9192419 69.3623031,98.7729978 69.0740347,98.4805093 C68.4975336,97.8985048 68.4975336,96.9524295 69.079989,96.370425 L74.7797163,90.66991 C75.3592124,90.0938856 76.30121,90.0879054 76.8807061,90.6758901 C77.4572072,91.2578947 77.4572072,92.2039699 76.8747518,92.7859745 L71.1750245,98.4864895 C70.8837968,98.7729978 70.5063916,98.9192419 70.1260271,98.9192419 L70.1260271,98.9192419 Z" id="Path" fill="#9CA8C1"></path>
                <path d="M139.622132,53.1838097 C139.235813,53.1838097 138.852453,53.0345934 138.564221,52.7361249 C137.990679,52.1511482 137.999593,51.2050372 138.582048,50.6260406 L142.789982,46.4745178 C143.378392,45.9044734 144.323384,45.9104177 144.890972,46.4984024 C145.464513,47.0833791 145.4556,48.0294901 144.873144,48.6084867 L140.66521,52.7600095 C140.373983,53.0435456 139.996578,53.1838097 139.622132,53.1838097 L139.622132,53.1838097 Z" id="Path" fill="#9CA8C1"></path>
                <path d="M128.282149,47.0356099 C127.901785,47.0356099 127.521385,46.8893657 127.230157,46.5998495 C126.650696,46.017845 126.650696,45.0717697 127.230157,44.4897652 L140.127323,31.512886 C140.706784,30.9308814 141.648817,30.9308814 142.228313,31.512886 C142.807809,32.0948905 142.807774,33.0409658 142.228313,33.6229703 L129.331147,46.5998495 C129.042914,46.8893656 128.662514,47.0356099 128.282149,47.0356099 L128.282149,47.0356099 Z" id="Path" fill="#9CA8C1"></path>
                <path d="M118.363784,4.5 C118.087642,4.5 117.863784,3.49264069 117.863784,2.25 C117.863784,1.00735931 118.087642,0 118.363784,0 C118.639926,0 118.863784,1.00735931 118.863784,2.25 C118.863784,3.49264069 118.639926,4.5 118.363784,4.5 Z M119.156158,4.88962902 C118.982376,4.67502609 119.624363,3.86710429 120.590076,3.08508516 C121.555789,2.30306604 122.479533,1.84308433 122.653315,2.05768726 C122.827097,2.2722902 122.18511,3.080212 121.219397,3.86223112 C120.253683,4.64425025 119.32994,5.10423196 119.156158,4.88962902 Z M119.339967,5.71705316 C119.402086,5.4479883 120.433983,5.45647467 121.644775,5.736008 C122.855567,6.01554134 123.786751,6.46026804 123.724632,6.72933291 C123.662514,6.99839777 122.630616,6.9899114 121.419824,6.71037807 C120.209032,6.43084474 119.277849,5.98611803 119.339967,5.71705316 Z M118.787571,6.40586222 C119.035766,6.28480937 119.678565,7.0920852 120.223303,8.20896325 C120.768041,9.3258413 121.008436,10.3293826 120.760241,10.4504354 C120.512046,10.5714883 119.869247,9.76421245 119.324509,8.64733439 C118.779771,7.53045634 118.539376,6.52691507 118.787571,6.40586222 Z M117.939997,6.40586222 C118.188192,6.52691507 117.947797,7.53045634 117.403059,8.64733439 C116.858321,9.76421245 116.215522,10.5714883 115.967327,10.4504354 C115.719132,10.3293826 115.959527,9.3258413 116.504265,8.20896325 C117.049003,7.0920852 117.691802,6.28480937 117.939997,6.40586222 Z M117.387601,5.71705316 C117.44972,5.98611803 116.518536,6.43084474 115.307744,6.71037807 C114.096952,6.9899114 113.065054,6.99839777 113.002936,6.72933291 C112.940817,6.46026804 113.872001,6.01554134 115.082793,5.736008 C116.293585,5.45647467 117.325483,5.4479883 117.387601,5.71705316 Z M117.57141,4.88962902 C117.397628,5.10423196 116.473885,4.64425025 115.508172,3.86223112 C114.542458,3.080212 113.900471,2.2722902 114.074253,2.05768726 C114.248035,1.84308433 115.171779,2.30306604 116.137492,3.08508516 C117.103205,3.86710429 117.745192,4.67502609 117.57141,4.88962902 Z" id="Oval-3" fill="#D6DBE6"></path>
                <path d="M206.363784,53.5 C206.087642,53.5 205.863784,52.4926407 205.863784,51.25 C205.863784,50.0073593 206.087642,49 206.363784,49 C206.639926,49 206.863784,50.0073593 206.863784,51.25 C206.863784,52.4926407 206.639926,53.5 206.363784,53.5 Z M207.156158,53.889629 C206.982376,53.6750261 207.624363,52.8671043 208.590076,52.0850852 C209.555789,51.303066 210.479533,50.8430843 210.653315,51.0576873 C210.827097,51.2722902 210.18511,52.080212 209.219397,52.8622311 C208.253683,53.6442502 207.32994,54.104232 207.156158,53.889629 Z M207.339967,54.7170532 C207.402086,54.4479883 208.433983,54.4564747 209.644775,54.736008 C210.855567,55.0155413 211.786751,55.460268 211.724632,55.7293329 C211.662514,55.9983978 210.630616,55.9899114 209.419824,55.7103781 C208.209032,55.4308447 207.277849,54.986118 207.339967,54.7170532 Z M206.787571,55.4058622 C207.035766,55.2848094 207.678565,56.0920852 208.223303,57.2089632 C208.768041,58.3258413 209.008436,59.3293826 208.760241,59.4504354 C208.512046,59.5714883 207.869247,58.7642124 207.324509,57.6473344 C206.779771,56.5304563 206.539376,55.5269151 206.787571,55.4058622 Z M205.939997,55.4058622 C206.188192,55.5269151 205.947797,56.5304563 205.403059,57.6473344 C204.858321,58.7642124 204.215522,59.5714883 203.967327,59.4504354 C203.719132,59.3293826 203.959527,58.3258413 204.504265,57.2089632 C205.049003,56.0920852 205.691802,55.2848094 205.939997,55.4058622 Z M205.387601,54.7170532 C205.44972,54.986118 204.518536,55.4308447 203.307744,55.7103781 C202.096952,55.9899114 201.065054,55.9983978 201.002936,55.7293329 C200.940817,55.460268 201.872001,55.0155413 203.082793,54.736008 C204.293585,54.4564747 205.325483,54.4479883 205.387601,54.7170532 Z M205.57141,53.889629 C205.397628,54.104232 204.473885,53.6442502 203.508172,52.8622311 C202.542458,52.080212 201.900471,51.2722902 202.074253,51.0576873 C202.248035,50.8430843 203.171779,51.303066 204.137492,52.0850852 C205.103205,52.8671043 205.745192,53.6750261 205.57141,53.889629 Z" id="Oval-3" fill="#D6DBE6"></path>
                <path d="M159.75,32.375 C159.75,28.8541847 156.895815,26 153.375,26 C149.854185,26 147,28.8541847 147,32.375 C147,35.8958153 149.854185,38.75 153.375,38.75 C156.895815,38.75 159.75,35.8958153 159.75,32.375 Z M148.821429,32.375 C148.821429,29.8601319 150.860132,27.8214286 153.375,27.8214286 C155.889868,27.8214286 157.928571,29.8601319 157.928571,32.375 C157.928571,34.8898681 155.889868,36.9285714 153.375,36.9285714 C150.860132,36.9285714 148.821429,34.8898681 148.821429,32.375 Z" id="Oval-4" fill="#D6DBE6" fill-rule="nonzero"></path>
                <path d="M53.9150955,54.8025159 C53.9150955,52.8695193 52.3480922,51.3025159 50.4150955,51.3025159 C48.4820989,51.3025159 46.9150955,52.8695193 46.9150955,54.8025159 C46.9150955,56.7355125 48.4820989,58.3025159 50.4150955,58.3025159 C52.3480922,58.3025159 53.9150955,56.7355125 53.9150955,54.8025159 Z M47.9150955,54.8025159 C47.9150955,53.421804 49.0343837,52.3025159 50.4150955,52.3025159 C51.7958074,52.3025159 52.9150955,53.421804 52.9150955,54.8025159 C52.9150955,56.1832278 51.7958074,57.3025159 50.4150955,57.3025159 C49.0343837,57.3025159 47.9150955,56.1832278 47.9150955,54.8025159 Z" id="Oval-4-Copy" fill="#D6DBE6" fill-rule="nonzero"></path>
                <path d="M222,28.5 C222,26.5670034 220.432997,25 218.5,25 C216.567003,25 215,26.5670034 215,28.5 C215,30.4329966 216.567003,32 218.5,32 C220.432997,32 222,30.4329966 222,28.5 Z M216,28.5 C216,27.1192881 217.119288,26 218.5,26 C219.880712,26 221,27.1192881 221,28.5 C221,29.8807119 219.880712,31 218.5,31 C217.119288,31 216,29.8807119 216,28.5 Z" id="Oval-4-Copy" fill="#D6DBE6" fill-rule="nonzero"></path>
                <path d="M173.097573,10.0975733 L173.097573,7.77082924 C173.097573,7.34511201 173.441299,7 173.871967,7 C174.299652,7 174.64636,7.35286347 174.64636,7.77082924 L174.64636,10.0975733 L176.973104,10.0975733 C177.398821,10.0975733 177.743933,10.4412993 177.743933,10.8719667 C177.743933,11.2996523 177.39107,11.64636 176.973104,11.64636 L174.64636,11.64636 L174.64636,13.9731041 C174.64636,14.3988213 174.302634,14.7439333 173.871967,14.7439333 C173.444281,14.7439333 173.097573,14.3910699 173.097573,13.9731041 L173.097573,11.64636 L170.770829,11.64636 C170.345112,11.64636 170,11.302634 170,10.8719667 C170,10.444281 170.352863,10.0975733 170.770829,10.0975733 L173.097573,10.0975733 Z" id="Combined-Shape" fill="#D6DBE6"></path>
                <path d="M14.0975733,75.0975733 L14.0975733,72.7708292 C14.0975733,72.345112 14.4412993,72 14.8719667,72 C15.2996523,72 15.64636,72.3528635 15.64636,72.7708292 L15.64636,75.0975733 L17.9731041,75.0975733 C18.3988213,75.0975733 18.7439333,75.4412993 18.7439333,75.8719667 C18.7439333,76.2996523 18.3910699,76.64636 17.9731041,76.64636 L15.64636,76.64636 L15.64636,78.9731041 C15.64636,79.3988213 15.302634,79.7439333 14.8719667,79.7439333 C14.444281,79.7439333 14.0975733,79.3910699 14.0975733,78.9731041 L14.0975733,76.64636 L11.7708292,76.64636 C11.345112,76.64636 11,76.302634 11,75.8719667 C11,75.444281 11.3528635,75.0975733 11.7708292,75.0975733 L14.0975733,75.0975733 Z" id="Combined-Shape" fill="#D6DBE6"></path>
                <path d="M76.8651927,18.5586933 L76.8651927,15.7830888 C76.8651927,15.3506008 77.2160135,15 77.6555703,15 C78.0920839,15 78.445948,15.3564407 78.445948,15.7830888 L78.445948,18.5586933 L80.2300722,16.4324569 C80.5080701,16.1011518 81.0021763,16.0580794 81.3388963,16.340621 C81.6732851,16.6212065 81.7152451,17.1217154 81.441001,17.4485468 L79.6568768,19.5747832 L82.3903136,19.0928045 C82.8162312,19.0177038 83.2224249,19.3023137 83.2987532,19.7351926 C83.374553,20.1650746 83.0849752,20.575458 82.6648089,20.6495446 L79.9313721,21.1315233 L82.3351161,22.5193255 C82.7096617,22.7355695 82.8378805,23.2146897 82.618102,23.5953571 C82.3998453,23.9733889 81.9142265,24.1016238 81.5447384,23.8882998 L79.1409944,22.5004976 L80.0903071,25.1087126 C80.2382267,25.5151184 80.0284755,25.9645632 79.6154272,26.1149004 C79.2052386,26.2641969 78.7508052,26.0502808 78.604883,25.6493628 L77.6555703,23.0411477 L76.7062577,25.6493628 C76.5583381,26.0557686 76.1087618,26.2652377 75.6957135,26.1149004 C75.2855249,25.965604 75.0749113,25.5096307 75.2208336,25.1087126 L76.1701462,22.5004976 L73.7664022,23.8882998 C73.3918566,24.1045438 72.912817,23.9760244 72.6930386,23.5953571 C72.4747818,23.2173253 72.6065365,22.7326496 72.9760246,22.5193255 L75.3797686,21.1315233 L72.6463317,20.6495446 C72.2204142,20.5744439 71.9360592,20.1680716 72.0123875,19.7351926 C72.0881873,19.3053107 72.5006607,19.0187179 72.920827,19.0928045 L75.6542638,19.5747832 L73.8701397,17.4485468 C73.5921417,17.1172418 73.6355243,16.6231627 73.9722443,16.340621 C74.3066331,16.0600355 74.8068244,16.1056255 75.0810685,16.4324569 L76.8651927,18.5586933 Z M77.258157,19.6349335 C77.2121021,19.7619838 77.1325435,19.8794037 77.0205141,19.9734075 C76.9095285,20.0665355 76.7802779,20.1237315 76.6470858,20.1466384 C76.6934721,20.2735682 76.7080028,20.4146563 76.6826078,20.5586785 C76.6574494,20.7013588 76.5952025,20.8282542 76.5078958,20.9314162 C76.6250186,20.9988335 76.7268394,21.0975731 76.7999614,21.2242241 C76.8724021,21.3496951 76.906285,21.4869141 76.9057154,21.6220604 C77.0387717,21.5984199 77.1802396,21.6086097 77.317664,21.6586281 C77.453808,21.7081805 77.5679665,21.7915168 77.6544005,21.8954111 C77.7411317,21.7917744 77.8560523,21.7086465 77.9934767,21.6586281 C78.1296207,21.6090758 78.2706387,21.5995354 78.403633,21.6235643 C78.4034566,21.4884243 78.4380572,21.3508751 78.5111792,21.2242241 C78.5836199,21.0987531 78.6855136,21.0008001 78.8028386,20.9337203 C78.7158372,20.8303104 78.6539279,20.7027007 78.6285329,20.5586785 C78.6033745,20.4159982 78.6184666,20.2754658 78.6652247,20.1486646 C78.5321071,20.1253715 78.4026559,20.0674114 78.2906265,19.9734075 C78.1796409,19.8802796 78.1008697,19.7629245 78.0551822,19.6357337 C77.9382357,19.7034564 77.8018143,19.742266 77.6555703,19.742266 C77.5106889,19.742266 77.3749123,19.7029999 77.258157,19.6349335 Z" id="Rectangle-6" fill="#D6DBE6"></path>
                <path d="M4.86519266,38.5586933 L4.86519266,35.7830888 C4.86519266,35.3506008 5.21601351,35 5.65557033,35 C6.09208385,35 6.44594799,35.3564407 6.44594799,35.7830888 L6.44594799,38.5586933 L8.23007216,36.4324569 C8.50807008,36.1011518 9.00217628,36.0580794 9.33889634,36.340621 C9.6732851,36.6212065 9.71524509,37.1217154 9.44100099,37.4485468 L7.65687682,39.5747832 L10.3903136,39.0928045 C10.8162312,39.0177038 11.2224249,39.3023137 11.2987532,39.7351926 C11.374553,40.1650746 11.0849752,40.575458 10.6648089,40.6495446 L7.9313721,41.1315233 L10.3351161,42.5193255 C10.7096617,42.7355695 10.8378805,43.2146897 10.618102,43.5953571 C10.3998453,43.9733889 9.9142265,44.1016238 9.54473844,43.8882998 L7.14099444,42.5004976 L8.09030708,45.1087126 C8.23822669,45.5151184 8.02847546,45.9645632 7.61542716,46.1149004 C7.20523862,46.2641969 6.75080521,46.0502808 6.60488297,45.6493628 L5.65557033,43.0411477 L4.70625768,45.6493628 C4.55833808,46.0557686 4.10876179,46.2652377 3.69571349,46.1149004 C3.28552495,45.965604 3.07491134,45.5096307 3.22083357,45.1087126 L4.17014621,42.5004976 L1.76640221,43.8882998 C1.39185663,44.1045438 0.912817021,43.9760244 0.693038611,43.5953571 C0.474781847,43.2173253 0.606536488,42.7326496 0.976024552,42.5193255 L3.37976855,41.1315233 L0.64633173,40.6495446 C0.220414207,40.5744439 -0.0639407663,40.1680716 0.0123874746,39.7351926 C0.0881872534,39.3053107 0.500660688,39.0187179 0.920827011,39.0928045 L3.65426383,39.5747832 L1.87013966,37.4485468 C1.59214174,37.1172418 1.63552425,36.6231627 1.97224431,36.340621 C2.30663307,36.0600355 2.8068244,36.1056255 3.08106849,36.4324569 L4.86519266,38.5586933 Z M5.25815697,39.6349335 C5.21210206,39.7619838 5.13254351,39.8794037 5.02051412,39.9734075 C4.90952853,40.0665355 4.78027788,40.1237315 4.64708581,40.1466384 C4.69347212,40.2735682 4.70800277,40.4146563 4.68260777,40.5586785 C4.65744937,40.7013588 4.59520251,40.8282542 4.50789577,40.9314162 C4.62501863,40.9988335 4.72683941,41.0975731 4.79996141,41.2242241 C4.87240211,41.3496951 4.90628503,41.4869141 4.90571541,41.6220604 C5.03877173,41.5984199 5.18023957,41.6086097 5.31766397,41.6586281 C5.45380796,41.7081805 5.56796646,41.7915168 5.6544005,41.8954111 C5.74113174,41.7917744 5.85605228,41.7086465 5.99347668,41.6586281 C6.12962066,41.6090758 6.27063872,41.5995354 6.40363296,41.6235643 C6.40345662,41.4884243 6.43805725,41.3508751 6.51117924,41.2242241 C6.58361994,41.0987531 6.68551364,41.0008001 6.8028386,40.9337203 C6.71583719,40.8303104 6.65392789,40.7027007 6.62853289,40.5586785 C6.6033745,40.4159982 6.61846664,40.2754658 6.66522467,40.1486646 C6.53210711,40.1253715 6.40265593,40.0674114 6.29062654,39.9734075 C6.17964095,39.8802796 6.10086975,39.7629245 6.05518225,39.6357337 C5.93823573,39.7034564 5.80181432,39.742266 5.65557033,39.742266 C5.51068893,39.742266 5.37491231,39.7029999 5.25815697,39.6349335 Z" id="Rectangle-6" fill="#D6DBE6"></path>
                <path d="M116.315816,53 C98.0901423,53 83.315615,67.7921573 83.315615,86.0395795 C83.315615,104.286598 98.0901423,119.078756 116.315816,119.078756 C134.541088,119.078756 149.315615,104.286598 149.315615,86.0395795 C149.315615,67.7921573 134.541088,53 116.315816,53 L116.315816,53 L116.315816,53 Z" id="Shape-Copy" fill="#F3F5F8"></path>
                <path d="M137.383216,94.1438718 C130.920446,108.784966 120.075056,106.157531 116.315816,119.078756 C134.541088,119.078756 149.315615,104.286598 149.315615,86.0395795 C149.315615,76.33578 145.137367,67.6091321 138.483863,61.5645986 C133.425531,72.975838 143.845987,79.5027776 137.383216,94.1438718 Z" id="Shape-Copy-2" fill="#E8EDF6"></path>
                <path d="M80.7767914,74.2870649 C81.7494897,71.1302121 83.1820211,68.1753411 84.9960756,65.5008558 C90.932089,56.7493099 100.953269,51 112.315816,51 C130.541088,51 145.315615,65.7921573 145.315615,84.0395795 C145.315615,90.4833084 143.473129,96.4961921 140.286842,101.578949" id="Path" stroke="#9CA8C1" stroke-width="4" stroke-linecap="round" stroke-linejoin="round"></path>
                <path d="M135.776171,107.27499 C134.70369,108.360367 133.556606,109.371705 132.343254,110.30066" id="Path" stroke="#9CA8C1" stroke-width="4" stroke-linecap="round" stroke-linejoin="round"></path>
                <path d="M126.337118,113.956758 C122.081612,115.959425 117.329274,117.078756 112.315816,117.078756 C94.0901423,117.078756 79.315615,102.286598 79.315615,84.0395795" id="Path" stroke="#9CA8C1" stroke-width="4" stroke-linecap="round" stroke-linejoin="round"></path>
                <path d="M117.954319,73.0972336 L118.809696,69.6093918 C119.012467,68.7825833 118.510442,67.9469831 117.685238,67.7377775 C116.868307,67.5306693 116.03816,68.0250281 115.831052,68.8419587 C115.830076,68.8458071 115.829115,68.8496594 115.82817,68.8535153 L115.005,72.2102501 C114.221424,72.0115494 113.416027,71.8244567 112.617344,71.6387296 L113.448257,68.2488108 C113.650833,67.4223523 113.149059,66.5871623 112.324258,66.377941 C111.507846,66.1708476 110.678131,66.6647982 110.471037,67.4812104 C110.470053,67.4850917 110.469084,67.4889768 110.46813,67.4928657 L109.61263,70.9804909 C108.963008,70.829929 106.118065,70.082294 105.5,69.9262695 L107.711771,70.5096863 L105.086673,69.849508 C104.234159,69.6351115 103.369256,70.1524085 103.15486,71.0049232 C103.14909,71.0278647 103.143833,71.0509319 103.139092,71.0741077 C102.954628,71.9757915 103.512694,72.8628939 104.405365,73.0869452 C104.798981,73.185749 104.987617,73.2407315 104.971271,73.2518924 C106.179871,73.5584787 106.397755,74.3710348 106.361161,75.0152757 L104.969592,80.6908775 C105.053187,80.7127278 105.160954,80.7448203 105.2798,80.7919349 C105.18009,80.7673534 105.074002,80.7393578 104.964557,80.7127278 L103.014682,88.6628039 C102.866964,89.0356237 102.491963,89.5948535 101.648629,89.3831792 C101.66283,89.4046745 101.00448,89.2795922 99.6735781,89.0079323 C98.7421026,88.8178301 97.828905,89.4050205 97.6153564,90.3314019 C97.4002511,91.2645368 97.9580428,92.2015948 98.8808585,92.4573727 L101.880948,93.288911 C102.602415,93.4729311 103.310118,93.665145 104.006406,93.8464337 L103.137799,97.392942 C102.935443,98.2191573 103.437055,99.0540077 104.261554,99.2632467 C105.077278,99.4702588 105.90637,98.9768003 106.113382,98.1610763 C106.114415,98.157005 106.115431,98.1529294 106.116431,98.1488498 L106.972511,94.6545515 C107.786302,94.8798822 108.57592,95.0864353 109.348753,95.2830875 L108.497726,98.750356 C108.29479,99.5771618 108.796785,100.412866 109.62203,100.622059 C110.439169,100.829197 111.269508,100.334693 111.476646,99.5175549 C111.477604,99.5137753 111.478547,99.509992 111.479477,99.5062052 L112.346752,95.9713703 C117.431264,96.9498517 121.255475,96.5548402 122.864592,91.8788872 C124.161822,88.113475 122.799797,85.940741 120.125099,84.5242304 C122.073295,84.0663994 123.540401,82.7628955 123.931853,80.0708767 C124.473708,76.3932069 121.720115,74.4164423 117.954319,73.0972336 Z" id="Path" fill="#9CA8C1" fill-rule="nonzero"></path>
                <path d="M116.905906,89.9707189 L116.905906,89.9707189 C116.01196,93.4010748 109.962186,91.5477868 108,91.0818208 L109.589491,85 C111.551025,85.4675213 117.840575,86.3932322 116.905906,89.9707189 Z" id="Path" fill="#F3F5F8" fill-rule="nonzero"></path>
                <path d="M118.902609,79.8827729 L118.902609,79.8827729 C118.040976,83.370716 112.723956,81.5987644 111,81.1642922 L112.521016,75 C114.244971,75.4344722 119.800016,76.2450237 118.902609,79.8827729 Z" id="Path" fill="#F3F5F8" fill-rule="nonzero"></path>
            </g>
        </g>
    </g>
</svg>