<?xml version="1.0" encoding="UTF-8"?>
<svg width="209px" height="110px" viewBox="0 0 209 110" version="1.1" xmlns="http://www.w3.org/2000/svg" xmlns:xlink="http://www.w3.org/1999/xlink">
    <!-- Generator: Sketch 49.3 (51167) - http://www.bohemiancoding.com/sketch -->
    <title>Group 2</title>
    <desc>Created with Sketch.</desc>
    <defs></defs>
    <g id="CN" stroke="none" stroke-width="1" fill="none" fill-rule="evenodd">
        <g id="全部订单为空时" transform="translate(-81.000000, -120.000000)">
            <g id="Group-2" transform="translate(81.000000, 120.000000)">
                <g id="Group" transform="translate(61.000000, 24.000000)">
                    <rect id="Rectangle-10" fill="#FFFFFF" x="4" y="20" width="62" height="63"></rect>
                    <rect id="Rectangle-9" fill="#F3F5F8" x="25" y="9" width="64" height="59" rx="4"></rect>
                    <rect id="Rectangle" fill="#FFFFFF" x="31" y="15" width="7" height="7" rx="3.5"></rect>
                    <rect id="Rectangle-Copy" fill="#FFFFFF" x="41" y="17" width="27" height="3" rx="1.5"></rect>
                    <rect id="Rectangle-Copy-3" fill="#FFFFFF" x="31" y="26" width="7" height="7" rx="3.5"></rect>
                    <rect id="Rectangle-Copy-2" fill="#FFFFFF" x="41" y="28" width="27" height="3" rx="1.5"></rect>
                    <rect id="Rectangle-11" fill="#E8EDF6" x="31" y="60" width="49" height="9" rx="2"></rect>
                    <rect id="Rectangle-Copy-5" fill="#FFFFFF" x="31" y="38" width="7" height="7" rx="3.5"></rect>
                    <rect id="Rectangle-Copy-4" fill="#FFFFFF" x="41" y="40" width="27" height="3" rx="1.5"></rect>
                    <path d="M60,82 L10,82 C7.63977414,81.9619345 3.96726181,79.469834 4,77 L4,69.7811327 C4,67.9604032 2.70890307,66.6529248 2.70890307,64.8321953 C2.70890307,63.3896077 4,61.433769 4,59.9911814 L4,24 C3.96726181,21.6121528 6.39073671,20.1158791 9,20 L11,20 C12.7171911,20.1158791 13.8742733,20.4632283 14,18 C13.8742733,16.2896944 12.797544,16 11,16 L9,16 C2.04096454,16 0,17.20349 0,24 L0,59.8416305 C0,61.5048862 1.06213772,63.2894879 1.06213772,64.9527435 C1.06213772,66.6348779 0,68.1956663 0,69.8778006 L0,77 C0,83.5418367 2.43737233,86 9,86 L60,86 C66.7679313,85.711433 68.3160645,84.2953172 69,77 C68.6417847,76.7626468 67.8634644,76.3324585 67.0679932,76.3324585 C66.272522,76.3324585 65.1556702,76.5428146 65,77 C64.567552,79.5767109 62.5943724,81.9619345 60,82 Z" id="Shape" fill="#9CA8C1"></path>
                    <path d="M7,67 L-3,67 C-1.8954305,67 -1,66.1045695 -1,65 C-1,63.8954305 -1.8954305,63 -3,63 L7,63 C5.8954305,63 5,63.8954305 5,65 C5,66.1045695 5.8954305,67 7,67 Z" id="Combined-Shape-Copy-2" fill="#FFFFFF" transform="translate(2.000000, 65.000000) rotate(90.000000) translate(-2.000000, -65.000000) "></path>
                    <path d="M43.5029768,6.97400555 L59.8186064,6.97400555 C62.2935999,6.97400555 64.3981497,6.90958056 64.3981497,4.10172461 C64.3981497,1.24554991 62.2935999,0.0214749971 59.7273377,0.0214749971 L43.5029768,0.0214749971 C40.9259771,0.0214749971 38.8321648,1.25091866 38.8321648,4.10172461 C38.8321648,6.95253055 40.9259771,6.97400555 43.5029768,6.97400555 L43.5029768,6.97400555 L43.5029768,6.97400555 L43.5029768,6.97400555 Z M77.3803906,1.00000512 L72.6797656,1.00000512 C70.8092187,1.00000512 69.0029869,1.3087732 69.0029869,3.2674675 C69.0029869,5.1191294 70.7067953,5.00295435 72.6797641,5.00295435 L77.3803925,5.00295435 C79.5689862,5.00295435 82.0507773,7.53433828 82.0507773,9.70709761 L82.0507773,53.3296259 C82.0507773,54.8507553 83.3836136,56.4151347 83.3836136,57.936264 C83.3836136,59.4840173 82.0507773,60.9885206 82.0507773,62.5362739 L82.0507773,63.3999386 C82.0507773,65.5834011 79.5689862,67.5204426 77.3803925,67.5204426 L26.9033898,67.5204426 C24.6393273,67.5204426 20.9315584,65.4656654 20.9315584,63.3999386 L20.9315584,43.5466303 C20.9315584,42.0484602 19.6005826,40.5160572 19.6005826,39.0178871 C19.6005826,37.5083065 20.9315584,36.0329588 20.9315584,34.5233781 L20.9315584,28.4338368 C20.9315584,26.9404744 19.6005826,25.3405723 19.6005826,23.8472099 C19.6005826,22.2786538 20.9315584,20.8166375 20.9315584,19.2480814 L20.9315584,9.9565226 C20.9315584,7.78376327 23.4364059,5.00295435 25.619609,5.00295435 L31.5115629,5.00295435 C33.2419535,5.00295435 34.0692683,5.00295434 34.0692683,2.99053866 C34.0692683,0.978122988 33.3228125,1.00000504 31.5115625,1.00000504 L25.6196094,1.00000512 C19.0538281,1.00000512 17,3.10854496 17,9.70174568 L17,19.4230848 C17,20.897793 18.3203655,22.3725018 18.3203655,23.8472099 C18.3203655,25.4723056 17,27.0974006 17,28.7224962 L17,34.3037585 C17,35.6252585 18.5769089,37.1348408 18.5769089,38.4563408 C18.5769089,40.2800301 17,41.9156371 17,43.7393264 L17,62.9022393 C17,69.5329014 19.4473437,72 26.1209375,72 L76.8844531,72 C83.9623437,72 86,69.9289215 86,62.9022393 C86,62.9022393 84.5175781,59.748433 84.5175781,57.936264 C84.5175781,56.4927419 86,54.5786881 86,53.135166 C86,38.659143 86,9.70709722 86,9.70709722 C86,7.15437261 85.8598438,5.49001753 84.5175781,4.06113399 C83.0405468,2.47705328 80.6147656,1.00000512 77.3803906,1.00000512 Z" id="Shape" fill="#9CA8C1"></path>
                    <path d="M24,26 L14,26 C15.1045695,26 16,25.1045695 16,24 C16,22.8954305 15.1045695,22 14,22 L24,22 C22.8954305,22 22,22.8954305 22,24 C22,25.1045695 22.8954305,26 24,26 Z" id="Combined-Shape-Copy-3" fill="#FFFFFF" transform="translate(19.000000, 24.000000) rotate(90.000000) translate(-19.000000, -24.000000) "></path>
                    <path d="M89,60 L79,60 C80.1045695,60 81,59.1045695 81,58 C81,56.8954305 80.1045695,56 79,56 L89,56 C87.8954305,56 87,56.8954305 87,58 C87,59.1045695 87.8954305,60 89,60 Z" id="Combined-Shape-Copy-5" fill="#F3F5F8" transform="translate(84.000000, 58.000000) rotate(90.000000) translate(-84.000000, -58.000000) "></path>
                    <path d="M24,41 L14,41 C15.1045695,41 16,40.1045695 16,39 C16,37.8954305 15.1045695,37 14,37 L24,37 C22.8954305,37 22,37.8954305 22,39 C22,40.1045695 22.8954305,41 24,41 Z" id="Combined-Shape-Copy-4" fill="#FFFFFF" transform="translate(19.000000, 39.000000) rotate(90.000000) translate(-19.000000, -39.000000) "></path>
                </g>
                <path d="M5.3637841,84.5 C5.08764173,84.5 4.8637841,83.4926407 4.8637841,82.25 C4.8637841,81.0073593 5.08764173,80 5.3637841,80 C5.63992648,80 5.8637841,81.0073593 5.8637841,82.25 C5.8637841,83.4926407 5.63992648,84.5 5.3637841,84.5 Z M6.15615801,84.889629 C5.98237598,84.6750261 6.62436303,83.8671043 7.59007623,83.0850852 C8.55578942,82.303066 9.47953281,81.8430843 9.65331483,82.0576873 C9.82709686,82.2722902 9.18510981,83.080212 8.21939662,83.8622311 C7.25368342,84.6442502 6.32994003,85.104232 6.15615801,84.889629 Z M6.33996717,85.7170532 C6.40208569,85.4479883 7.43398346,85.4564747 8.64477534,85.736008 C9.85556723,86.0155413 10.786751,86.460268 10.7246325,86.7293329 C10.6625139,86.9983978 9.63061618,86.9899114 8.41982429,86.7103781 C7.2090324,86.4308447 6.27784865,85.986118 6.33996717,85.7170532 Z M5.78757117,86.4058622 C6.0357663,86.2848094 6.67856545,87.0920852 7.22330328,88.2089632 C7.7680411,89.3258413 8.00843646,90.3293826 7.76024134,90.4504354 C7.51204621,90.5714883 6.86924705,89.7642124 6.32450923,88.6473344 C5.77977141,87.5304563 5.53937605,86.5269151 5.78757117,86.4058622 Z M4.93999703,86.4058622 C5.18819215,86.5269151 4.9477968,87.5304563 4.40305897,88.6473344 C3.85832115,89.7642124 3.21552199,90.5714883 2.96732687,90.4504354 C2.71913175,90.3293826 2.9595271,89.3258413 3.50426493,88.2089632 C4.04900275,87.0920852 4.69180191,86.2848094 4.93999703,86.4058622 Z M4.38760103,85.7170532 C4.44971955,85.986118 3.5185358,86.4308447 2.30774392,86.7103781 C1.09695203,86.9899114 0.0650542607,86.9983978 0.00293574235,86.7293329 C-0.059182776,86.460268 0.872000974,86.0155413 2.08279286,85.736008 C3.29358475,85.4564747 4.32548252,85.4479883 4.38760103,85.7170532 Z M4.5714102,84.889629 C4.39762817,85.104232 3.47388478,84.6442502 2.50817159,83.8622311 C1.5424584,83.080212 0.900471344,82.2722902 1.07425337,82.0576873 C1.2480354,81.8430843 2.17177879,82.303066 3.13749198,83.0850852 C4.10320517,83.8671043 4.74519223,84.6750261 4.5714102,84.889629 Z" id="Oval-3" fill="#D6DBE6"></path>
                <path d="M178.75,40.375 C178.75,36.8541847 175.895815,34 172.375,34 C168.854185,34 166,36.8541847 166,40.375 C166,43.8958153 168.854185,46.75 172.375,46.75 C175.895815,46.75 178.75,43.8958153 178.75,40.375 Z M167.821429,40.375 C167.821429,37.8601319 169.860132,35.8214286 172.375,35.8214286 C174.889868,35.8214286 176.928571,37.8601319 176.928571,40.375 C176.928571,42.8898681 174.889868,44.9285714 172.375,44.9285714 C169.860132,44.9285714 167.821429,42.8898681 167.821429,40.375 Z" id="Oval-4" fill="#D6DBE6" fill-rule="nonzero"></path>
                <path d="M154,3.5 C154,1.56700338 152.432997,0 150.5,0 C148.567003,0 147,1.56700338 147,3.5 C147,5.43299662 148.567003,7 150.5,7 C152.432997,7 154,5.43299662 154,3.5 Z M148,3.5 C148,2.11928813 149.119288,1 150.5,1 C151.880712,1 153,2.11928813 153,3.5 C153,4.88071187 151.880712,6 150.5,6 C149.119288,6 148,4.88071187 148,3.5 Z" id="Oval-4-Copy" fill="#D6DBE6" fill-rule="nonzero"></path>
                <path d="M38.0975733,50.0975733 L38.0975733,47.7708292 C38.0975733,47.345112 38.4412993,47 38.8719667,47 C39.2996523,47 39.64636,47.3528635 39.64636,47.7708292 L39.64636,50.0975733 L41.9731041,50.0975733 C42.3988213,50.0975733 42.7439333,50.4412993 42.7439333,50.8719667 C42.7439333,51.2996523 42.3910699,51.64636 41.9731041,51.64636 L39.64636,51.64636 L39.64636,53.9731041 C39.64636,54.3988213 39.302634,54.7439333 38.8719667,54.7439333 C38.444281,54.7439333 38.0975733,54.3910699 38.0975733,53.9731041 L38.0975733,51.64636 L35.7708292,51.64636 C35.345112,51.64636 35,51.302634 35,50.8719667 C35,50.444281 35.3528635,50.0975733 35.7708292,50.0975733 L38.0975733,50.0975733 Z" id="Combined-Shape" fill="#D6DBE6"></path>
                <path d="M95.0975733,3.09757333 L95.0975733,0.770829239 C95.0975733,0.345112006 95.4412993,-2.2574761e-14 95.8719667,-2.26011318e-14 C96.2996523,-2.262732e-14 96.64636,0.35286347 96.64636,0.770829239 L96.64636,3.09757333 L98.9731041,3.09757333 C99.3988213,3.09757333 99.7439333,3.44129929 99.7439333,3.87196666 C99.7439333,4.29965229 99.3910699,4.64635999 98.9731041,4.64635999 L96.64636,4.64635999 L96.64636,6.97310408 C96.64636,7.39882132 96.302634,7.74393332 95.8719667,7.74393332 C95.444281,7.74393332 95.0975733,7.39106985 95.0975733,6.97310408 L95.0975733,4.64635999 L92.7708292,4.64635999 C92.345112,4.64635999 92,4.30263404 92,3.87196666 C92,3.44428103 92.3528635,3.09757333 92.7708292,3.09757333 L95.0975733,3.09757333 Z" id="Combined-Shape" fill="#D6DBE6"></path>
                <path d="M28.8651927,11.5586933 L28.8651927,8.78308877 C28.8651927,8.35060079 29.2160135,8 29.6555703,8 C30.0920839,8 30.445948,8.35644071 30.445948,8.78308877 L30.445948,11.5586933 L32.2300722,9.43245687 C32.5080701,9.10115185 33.0021763,9.05807935 33.3388963,9.34062103 C33.6732851,9.62120652 33.7152451,10.1217154 33.441001,10.4485468 L31.6568768,12.5747832 L34.3903136,12.0928045 C34.8162312,12.0177038 35.2224249,12.3023137 35.2987532,12.7351926 C35.374553,13.1650746 35.0849752,13.575458 34.6648089,13.6495446 L31.9313721,14.1315233 L34.3351161,15.5193255 C34.7096617,15.7355695 34.8378805,16.2146897 34.618102,16.5953571 C34.3998453,16.9733889 33.9142265,17.1016238 33.5447384,16.8882998 L31.1409944,15.5004976 L32.0903071,18.1087126 C32.2382267,18.5151184 32.0284755,18.9645632 31.6154272,19.1149004 C31.2052386,19.2641969 30.7508052,19.0502808 30.604883,18.6493628 L29.6555703,16.0411477 L28.7062577,18.6493628 C28.5583381,19.0557686 28.1087618,19.2652377 27.6957135,19.1149004 C27.2855249,18.965604 27.0749113,18.5096307 27.2208336,18.1087126 L28.1701462,15.5004976 L25.7664022,16.8882998 C25.3918566,17.1045438 24.912817,16.9760244 24.6930386,16.5953571 C24.4747818,16.2173253 24.6065365,15.7326496 24.9760246,15.5193255 L27.3797686,14.1315233 L24.6463317,13.6495446 C24.2204142,13.5744439 23.9360592,13.1680716 24.0123875,12.7351926 C24.0881873,12.3053107 24.5006607,12.0187179 24.920827,12.0928045 L27.6542638,12.5747832 L25.8701397,10.4485468 C25.5921417,10.1172418 25.6355243,9.62316271 25.9722443,9.34062103 C26.3066331,9.06003554 26.8068244,9.10562549 27.0810685,9.43245687 L28.8651927,11.5586933 Z M29.258157,12.6349335 C29.2121021,12.7619838 29.1325435,12.8794037 29.0205141,12.9734075 C28.9095285,13.0665355 28.7802779,13.1237315 28.6470858,13.1466384 C28.6934721,13.2735682 28.7080028,13.4146563 28.6826078,13.5586785 C28.6574494,13.7013588 28.5952025,13.8282542 28.5078958,13.9314162 C28.6250186,13.9988335 28.7268394,14.0975731 28.7999614,14.2242241 C28.8724021,14.3496951 28.906285,14.4869141 28.9057154,14.6220604 C29.0387717,14.5984199 29.1802396,14.6086097 29.317664,14.6586281 C29.453808,14.7081805 29.5679665,14.7915168 29.6544005,14.8954111 C29.7411317,14.7917744 29.8560523,14.7086465 29.9934767,14.6586281 C30.1296207,14.6090758 30.2706387,14.5995354 30.403633,14.6235643 C30.4034566,14.4884243 30.4380572,14.3508751 30.5111792,14.2242241 C30.5836199,14.0987531 30.6855136,14.0008001 30.8028386,13.9337203 C30.7158372,13.8303104 30.6539279,13.7027007 30.6285329,13.5586785 C30.6033745,13.4159982 30.6184666,13.2754658 30.6652247,13.1486646 C30.5321071,13.1253715 30.4026559,13.0674114 30.2906265,12.9734075 C30.1796409,12.8802796 30.1008697,12.7629245 30.0551822,12.6357337 C29.9382357,12.7034564 29.8018143,12.742266 29.6555703,12.742266 C29.5106889,12.742266 29.3749123,12.7029999 29.258157,12.6349335 Z" id="Rectangle-6" fill="#D6DBE6"></path>
                <path d="M201.865193,70.5586933 L201.865193,67.7830888 C201.865193,67.3506008 202.216014,67 202.65557,67 C203.092084,67 203.445948,67.3564407 203.445948,67.7830888 L203.445948,70.5586933 L205.230072,68.4324569 C205.50807,68.1011518 206.002176,68.0580794 206.338896,68.340621 C206.673285,68.6212065 206.715245,69.1217154 206.441001,69.4485468 L204.656877,71.5747832 L207.390314,71.0928045 C207.816231,71.0177038 208.222425,71.3023137 208.298753,71.7351926 C208.374553,72.1650746 208.084975,72.575458 207.664809,72.6495446 L204.931372,73.1315233 L207.335116,74.5193255 C207.709662,74.7355695 207.83788,75.2146897 207.618102,75.5953571 C207.399845,75.9733889 206.914227,76.1016238 206.544738,75.8882998 L204.140994,74.5004976 L205.090307,77.1087126 C205.238227,77.5151184 205.028475,77.9645632 204.615427,78.1149004 C204.205239,78.2641969 203.750805,78.0502808 203.604883,77.6493628 L202.65557,75.0411477 L201.706258,77.6493628 C201.558338,78.0557686 201.108762,78.2652377 200.695713,78.1149004 C200.285525,77.965604 200.074911,77.5096307 200.220834,77.1087126 L201.170146,74.5004976 L198.766402,75.8882998 C198.391857,76.1045438 197.912817,75.9760244 197.693039,75.5953571 C197.474782,75.2173253 197.606536,74.7326496 197.976025,74.5193255 L200.379769,73.1315233 L197.646332,72.6495446 C197.220414,72.5744439 196.936059,72.1680716 197.012387,71.7351926 C197.088187,71.3053107 197.500661,71.0187179 197.920827,71.0928045 L200.654264,71.5747832 L198.87014,69.4485468 C198.592142,69.1172418 198.635524,68.6231627 198.972244,68.340621 C199.306633,68.0600355 199.806824,68.1056255 200.081068,68.4324569 L201.865193,70.5586933 Z M202.258157,71.6349335 C202.212102,71.7619838 202.132544,71.8794037 202.020514,71.9734075 C201.909529,72.0665355 201.780278,72.1237315 201.647086,72.1466384 C201.693472,72.2735682 201.708003,72.4146563 201.682608,72.5586785 C201.657449,72.7013588 201.595203,72.8282542 201.507896,72.9314162 C201.625019,72.9988335 201.726839,73.0975731 201.799961,73.2242241 C201.872402,73.3496951 201.906285,73.4869141 201.905715,73.6220604 C202.038772,73.5984199 202.18024,73.6086097 202.317664,73.6586281 C202.453808,73.7081805 202.567966,73.7915168 202.6544,73.8954111 C202.741132,73.7917744 202.856052,73.7086465 202.993477,73.6586281 C203.129621,73.6090758 203.270639,73.5995354 203.403633,73.6235643 C203.403457,73.4884243 203.438057,73.3508751 203.511179,73.2242241 C203.58362,73.0987531 203.685514,73.0008001 203.802839,72.9337203 C203.715837,72.8303104 203.653928,72.7027007 203.628533,72.5586785 C203.603374,72.4159982 203.618467,72.2754658 203.665225,72.1486646 C203.532107,72.1253715 203.402656,72.0674114 203.290627,71.9734075 C203.179641,71.8802796 203.10087,71.7629245 203.055182,71.6357337 C202.938236,71.7034564 202.801814,71.742266 202.65557,71.742266 C202.510689,71.742266 202.374912,71.7029999 202.258157,71.6349335 Z" id="Rectangle-6" fill="#D6DBE6"></path>
            </g>
        </g>
    </g>
</svg>